<?xml version="1.0" standalone="no"?>
<!DOCTYPE svg PUBLIC "-//W3C//DTD SVG 20010904//EN"
 "http://www.w3.org/TR/2001/REC-SVG-20010904/DTD/svg10.dtd">
<svg version="1.0" xmlns="http://www.w3.org/2000/svg"
 width="100.000000pt" height="47.000000pt" viewBox="0 0 100.000000 47.000000"
 preserveAspectRatio="xMidYMid meet">
<metadata>
Created by potrace 1.13, written by Peter Selinger 2001-2015
</metadata>
<g transform="translate(0.000000,47.000000) scale(0.100000,-0.100000)"
fill="#000000" stroke="none">
<path d="M167 302 l-167 -167 65 -65 65 -65 98 98 c53 53 101 97 106 97 5 0
51 -42 103 -93 52 -50 97 -93 101 -95 4 -1 35 26 70 61 l62 62 -168 168 -167
167 -168 -168z"/>
<path d="M597 402 c-31 -32 -57 -62 -57 -67 0 -13 312 -325 325 -325 6 0 39
28 73 63 l62 62 -163 163 c-89 89 -167 162 -172 162 -6 0 -36 -26 -68 -58z"/>
</g>
</svg>
